<?xml version="1.0" encoding="utf-8"?>
<!-- Generator: Adobe Illustrator 25.2.0, SVG Export Plug-In . SVG Version: 6.00 Build 0)  -->
<svg version="1.1" id="Calque_1" xmlns="http://www.w3.org/2000/svg" xmlns:xlink="http://www.w3.org/1999/xlink" x="0px" y="0px"
	 viewBox="0 0 175.7 99.8" style="enable-background:new 0 0 175.7 99.8;" xml:space="preserve">
<style type="text/css">
	.st0{fill-rule:evenodd;clip-rule:evenodd;fill:#0054A2;}
	.st1{fill-rule:evenodd;clip-rule:evenodd;fill:#73A8D7;}
	.st2{fill-rule:evenodd;clip-rule:evenodd;fill:#E40F1B;}
	.st3{fill-rule:evenodd;clip-rule:evenodd;fill:#00A039;}
	.st4{fill-rule:evenodd;clip-rule:evenodd;fill:#EF7D14;}
</style>
<g>
	<path class="st0" d="M172.8,39l-1,4.9h3.8h0.2l-0.1,0.2l-0.6,3l-0.1,0.2h-0.1H171l-1.4,6.8l0,0c-0.1,0.1-0.1,0.3-0.1,0.4
		c0,0.2,0,0.3-0.1,0.4l0,0l0,0c0,0,0,0.1,0,0.1c0,0.1,0,0.1,0,0.1l0,0c0,0.2-0.1,0.4-0.1,0.5l0,0c0,0.2,0.1,0.5,0.1,0.7
		c0,0.1,0.1,0.1,0.1,0.1c0.1,0.1,0.1,0.2,0.2,0.4l0,0l0,0l0,0c0.1,0.1,0.1,0.1,0.2,0.2c0.1,0.1,0.1,0.1,0.2,0.1
		c0.2,0.1,0.4,0.1,0.7,0.1c0.1,0,0.2,0,0.4-0.1c0.1,0,0.2,0,0.4-0.1c0.2,0,0.3-0.1,0.5-0.1c0.1-0.1,0.3-0.1,0.5-0.2l0.3-0.1
		l-0.1,0.3l-0.6,3.1l-0.1,0.1h-0.1l0,0l0,0c-0.1,0-0.1,0.1-0.2,0.1l0,0c-0.1,0-0.2,0-0.2,0.1c-0.3,0-0.7,0.1-1,0.1
		c-0.2,0-0.4,0-0.6,0.1c-0.2,0-0.4,0-0.6,0c-0.7,0-1.4-0.1-2-0.3s-1.1-0.5-1.5-0.9l0,0l0,0l0,0c-0.2-0.2-0.4-0.4-0.5-0.7
		c-0.1-0.2-0.2-0.5-0.4-0.7c-0.2-0.5-0.3-1.2-0.3-1.9c0-0.2,0-0.4,0-0.5c0-0.1,0-0.3,0.1-0.4c0-0.2,0-0.3,0-0.4
		c0.1-0.1,0.1-0.2,0.1-0.4l0,0l1.5-7.1h-3h-0.3l0.1-0.2l0.7-3v-0.2h0.2h3.1l0.8-3.7l0.1-0.1l0.1-0.1l4.4-1.2l0.4-0.1L172.8,39
		L172.8,39z M171.3,44.1l1-4.9l-4,1.2l-0.9,3.8v0.2h-0.2h-3.1l-0.5,2.6h3h0.2l-0.1,0.2l-1.5,7.3l0,0c0,0.1-0.1,0.2-0.1,0.4
		c0,0.1-0.1,0.2-0.1,0.4c0,0.1,0,0.2,0,0.4c0,0.1,0,0.3,0,0.5c0,0.6,0.1,1.2,0.2,1.7c0.1,0.2,0.2,0.5,0.4,0.7
		c0.1,0.2,0.3,0.4,0.5,0.5l0,0l0,0l0,0c0.4,0.4,0.8,0.6,1.3,0.8c0.5,0.2,1.2,0.2,1.9,0.2c0.2,0,0.4,0,0.6,0c0.2,0,0.4,0,0.5-0.1
		c0.3,0,0.7-0.1,1-0.1c0.1,0,0.2,0,0.2-0.1l0,0c0.1,0,0.1,0,0.1,0l0.5-2.6c-0.1,0.1-0.1,0.1-0.2,0.1c-0.1,0.1-0.3,0.1-0.4,0.1
		c-0.2,0-0.3,0.1-0.5,0.1c-0.1,0-0.2,0-0.4,0c-0.3,0-0.6,0-0.9-0.1c-0.1,0-0.2-0.1-0.4-0.1c-0.1-0.1-0.2-0.2-0.3-0.2l0,0l0,0l0,0
		c-0.1-0.2-0.2-0.3-0.3-0.5c-0.1,0-0.1-0.1-0.1-0.1c-0.1-0.2-0.1-0.5-0.1-0.8l0,0c0-0.2,0-0.3,0-0.5c0-0.1,0-0.1,0-0.1
		c0.1,0,0.1-0.1,0.1-0.1l0,0l0,0l0,0c0-0.1,0-0.2,0.1-0.4c0-0.1,0.1-0.3,0.1-0.5l0,0l1.5-6.9v-0.2h0.2h3.8l0.5-2.6h-3.8h-0.2
		L171.3,44.1L171.3,44.1z"/>
	<path class="st0" d="M172.6,39l-1.1,5.1h4l-0.6,3h-4l-1.5,6.9c-0.1,0.3-0.1,0.6-0.2,0.9c-0.1,0.2-0.1,0.5-0.1,0.7
		c0,0.5,0.2,1,0.5,1.3c0.3,0.3,0.7,0.5,1.3,0.5c0.2,0,0.5,0,0.8-0.1c0.3-0.1,0.6-0.2,1-0.2l-0.7,3c-0.5,0.1-0.9,0.2-1.3,0.2
		c-0.4,0.1-0.9,0.1-1.2,0.1c-1.5,0-2.6-0.4-3.3-1.1c-0.8-0.8-1.2-1.8-1.2-3.2c0-0.4,0-0.7,0.1-1c0-0.2,0.1-0.5,0.1-0.8l1.5-7.2h-3.2
		l0.6-3h3.3l0.9-3.9L172.6,39L172.6,39z"/>
	<path class="st0" d="M148.2,52.8l-1.6,7.4v0.1h-0.2h-4.3H142l0.1-0.2l1.8-8.4l0,0l0,0L148.2,52.8L148.2,52.8z M146.3,60l1.5-7.2
		l0,0c0.1-0.7,0.2-1.3,0.3-1.9c0.1-0.2,0.1-0.5,0.1-0.9c0-0.3,0-0.5,0-0.8c0-0.9-0.1-1.5-0.3-2.2c-0.2-0.6-0.5-1.2-1-1.6
		c-0.4-0.4-0.8-0.7-1.2-0.9c-0.1-0.1-0.2-0.1-0.3-0.1c-0.6-0.2-1.3-0.4-2-0.4l0,0c-0.5,0-1.1,0.1-1.6,0.2c-0.5,0.1-1,0.3-1.5,0.5
		l0,0c-0.7,0.4-1.3,0.9-1.9,1.5c-0.1,0.1-0.2,0.2-0.3,0.4c-0.1,0.1-0.2,0.3-0.4,0.4l0,0l-0.4-0.2l0.5-2.6h-3.3L131.2,60h3.8l1.5-7.2
		l0,0c0.2-0.9,0.5-1.7,0.8-2.4c0.3-0.7,0.7-1.3,1.1-1.8c0.5-0.5,1-0.9,1.5-1.2c0.5-0.2,1.1-0.4,1.8-0.4c0.4,0,0.8,0.1,1.2,0.2l0,0
		c0.3,0.1,0.6,0.3,0.9,0.6c0.5,0.5,0.7,1.2,0.7,2.1c0,0.2,0,0.4,0,0.6c0,0.1,0,0.1,0,0.1c0,0.1,0,0.1-0.1,0.2l0,0L146.3,60L146.3,60
		z M142.5,60h3.8H142.5L142.5,60z M144.2,51.8l-1.8,8.2L144.2,51.8L144.2,51.8z M144.2,51.8L144.2,51.8L144.2,51.8L144.2,51.8z
		 M143.9,51.7c0-0.2,0.1-0.4,0.1-0.5c0-0.2,0.1-0.3,0.1-0.5l0,0l0,0c0,0,0,0,0-0.1c0-0.1,0-0.1,0-0.1c0-0.2,0.1-0.4,0.1-0.6
		c0-0.8-0.2-1.5-0.7-1.9c-0.2-0.2-0.4-0.4-0.7-0.5l0,0c-0.3-0.1-0.6-0.2-1-0.2c-0.6,0-1.1,0.1-1.6,0.4c-0.5,0.2-1,0.6-1.4,1.1
		c-0.4,0.4-0.7,1-1,1.7c-0.3,0.7-0.5,1.5-0.7,2.4l0,0l-1.6,7.4v0.1h-0.2h-4.3h-0.2l0.1-0.2l3.5-16.2v-0.1h0.2h3.8h0.2v0.2l-0.5,2.1
		c0.1-0.1,0.2-0.1,0.2-0.2c0.6-0.7,1.3-1.2,2-1.6l0,0c0.5-0.2,1.1-0.5,1.6-0.6c0.5-0.1,1.1-0.2,1.6-0.2l0,0c0.8,0,1.5,0.1,2.1,0.4
		c0.1,0.1,0.2,0.1,0.3,0.1c0.5,0.2,1,0.6,1.4,1c0.5,0.5,0.8,1.1,1,1.8c0.2,0.7,0.4,1.5,0.4,2.3c0,0.2,0,0.5-0.1,0.9
		c0,0.2,0,0.5-0.1,0.9c-0.1,0.7-0.2,1.3-0.4,1.9h0.1L143.9,51.7L143.9,51.7z M144.3,51.3c0,0.2,0,0.3-0.1,0.5L144.3,51.3L144.3,51.3
		z M144.3,50.8L144.3,50.8L144.3,50.8L144.3,50.8L144.3,50.8z M144.3,50.8L144.3,50.8L144.3,50.8L144.3,50.8z M144.3,50.8
		c0,0.2,0,0.3-0.1,0.5L144.3,50.8L144.3,50.8z M144.3,50.8L144.3,50.8L144.3,50.8L144.3,50.8z"/>
	<path class="st0" d="M148,52.8l-1.5,7.4h-4.3l1.8-8.5c0.1-0.3,0.1-0.6,0.1-0.9c0.1-0.4,0.1-0.7,0.1-0.9c0-0.9-0.2-1.5-0.7-2
		c-0.5-0.5-1.1-0.7-1.9-0.7c-1.2,0-2.3,0.5-3.1,1.5c-0.9,1-1.5,2.4-1.9,4.2l-1.5,7.4h-4.3l3.5-16.2h3.8l-0.6,2.9
		c0.9-1,1.8-1.8,2.7-2.3c1-0.5,2.1-0.8,3.2-0.8c1.5,0,2.8,0.5,3.7,1.5c0.9,1,1.4,2.3,1.4,4c0,0.5-0.1,1.1-0.1,1.7
		C148.2,51.5,148.2,52.2,148,52.8L148,52.8z"/>
	<path class="st0" d="M162.3,45.4c-1.2-1.2-2.7-1.8-4.7-1.8c-1.5,0-2.7,0.2-3.8,0.7c-1,0.4-2.1,1.2-2.9,2.1c-0.9,0.9-1.5,1.9-2,3.1
		c-0.4,1.2-0.7,2.4-0.7,3.7c0,2.3,0.7,4.1,2,5.4c1.4,1.3,3.2,2,5.6,2c0.9,0,1.8-0.1,2.7-0.2c0.9-0.1,1.7-0.4,2.6-0.7l0.2-3.2
		c-0.7,0.4-1.5,0.7-2.2,0.8c-0.8,0.2-1.6,0.3-2.4,0.3c-1.5,0-2.6-0.4-3.4-1c-0.8-0.7-1.2-1.6-1.2-2.9c0-0.2,0-0.3,0-0.4
		c0-0.1,0-0.2,0-0.2h11.5c0.1-0.6,0.2-1.2,0.2-1.6c0.1-0.5,0.1-1,0.1-1.5C164,48.1,163.5,46.6,162.3,45.4z M160.4,50.6L160.4,50.6
		l-7.7,0.1c0.3-1.3,0.9-2.4,1.7-3.1c0.9-0.8,1.8-1.2,2.9-1.2c1,0,1.8,0.3,2.3,0.9c0.5,0.5,0.8,1.4,0.8,2.5
		C160.4,50,160.4,50.2,160.4,50.6z"/>
	<path class="st1" d="M94.8,38.2h5.9v8.5h6.9v-8.5h5.9v22.2h-5.9v-9.2h-6.9v9.2h-5.9V38.2L94.8,38.2z M120.8,42.1v5.7h2.1
		c1.3,0,2.3-0.2,2.9-0.7c0.7-0.4,1-1.2,1-2.1c0-1-0.4-1.7-1-2.2c-0.7-0.5-1.9-0.7-3.4-0.7H120.8L120.8,42.1z M115,38.2h8.8
		c2.9,0,5.1,0.5,6.5,1.5c1.4,0.9,2.1,2.4,2.1,4.3c0,1.5-0.4,2.6-1.1,3.5c-0.8,1-1.9,1.6-3.3,1.9c1.2,0.4,2.1,1.6,2.8,3.6v0.1
		l2.7,7.3h-6.1l-1.9-6c-0.3-1-0.7-1.6-1.3-2.1c-0.5-0.4-1.4-0.5-2.6-0.5h-0.9v8.6H115V38.2L115,38.2z"/>
	<path class="st0" d="M49.9,44.2c3.2,0,5.7,2.6,5.7,5.7c0,3.2-2.6,5.7-5.7,5.7c-3.2,0-5.7-2.6-5.7-5.7
		C44.2,46.7,46.7,44.2,49.9,44.2L49.9,44.2z"/>
	<path class="st2" d="M49.9,29.8c3.2,0,5.7,2.6,5.7,5.7c0,3.2-2.6,5.8-5.7,5.8c-3.2,0-5.7-2.6-5.7-5.8
		C44.2,32.4,46.7,29.8,49.9,29.8L49.9,29.8z"/>
	<path class="st2" d="M67.3,41.6c0-10.5-7.8-19-17.4-19c-9.6,0-17.4,8.5-17.4,19c0,0.7,0,1.4,0.1,2.1c1-9.5,8-15.1,17-15.1
		c9,0,16.7,5.6,17.6,15.1C67.3,43,67.3,42.3,67.3,41.6L67.3,41.6z"/>
	<path class="st2" d="M67.3,2.1c0,10.5-7.8,19-17.4,19c-9.6,0-17.4-8.5-17.4-19c0-0.7,0-1.4,0.1-2.1c1,9.5,8,15.1,17,15.1
		c9,0,16.7-5.6,17.6-15.1C67.3,0.7,67.3,1.4,67.3,2.1L67.3,2.1z"/>
	<path class="st3" d="M29.8,49.9c0-3.2,2.6-5.7,5.7-5.7c3.2,0,5.7,2.6,5.7,5.7c0,3.2-2.6,5.7-5.7,5.7C32.4,55.6,29.8,53.1,29.8,49.9
		L29.8,49.9z"/>
	<path class="st3" d="M41.6,32.5c-10.5,0-19,7.8-19,17.4c0,9.6,8.5,17.4,19,17.4c0.7,0,1.4,0,2.1-0.1c-9.5-0.9-15.1-8-15.1-17
		c0-8.9,5.6-16.7,15.1-17.6C43,32.5,42.3,32.5,41.6,32.5L41.6,32.5z"/>
	<path class="st3" d="M2.1,32.5c10.5,0,19,7.8,19,17.4c0,9.6-8.6,17.4-19,17.4c-0.7,0-1.4,0-2.1-0.1c9.5-0.9,15.1-8,15.1-17
		c0-8.9-5.6-16.7-15.1-17.6C0.7,32.5,1.4,32.5,2.1,32.5L2.1,32.5z"/>
	<path class="st1" d="M70,49.9c0,3.2-2.6,5.7-5.7,5.7c-3.2,0-5.8-2.6-5.8-5.7c0-3.2,2.6-5.7,5.8-5.7C67.4,44.2,70,46.7,70,49.9
		L70,49.9z"/>
	<path class="st1" d="M58.2,67.3c10.5,0,19-7.8,19-17.4c0-9.6-8.5-17.4-19-17.4c-0.7,0-1.4,0-2.1,0.1c9.5,1,15.1,8.1,15.1,17
		c0,8.9-5.6,16.7-15.1,17.6C56.8,67.3,57.5,67.3,58.2,67.3L58.2,67.3z"/>
	<path class="st1" d="M97.7,67.3c-10.5,0-19-7.8-19-17.4c0-9.6,8.5-17.4,19-17.4c0.7,0,1.4,0,2.1,0.1c-9.5,1-15.1,8.1-15.1,17
		c0,8.9,5.6,16.7,15.1,17.6C99.1,67.3,98.4,67.3,97.7,67.3L97.7,67.3z"/>
	<path class="st4" d="M49.9,70c-3.2,0-5.7-2.6-5.7-5.7c0-3.2,2.6-5.8,5.7-5.8c3.2,0,5.7,2.6,5.7,5.8C55.6,67.4,53.1,70,49.9,70
		L49.9,70z"/>
	<path class="st4" d="M32.5,58.2c0,10.5,7.8,19,17.4,19c9.6,0,17.4-8.5,17.4-19c0-0.7,0-1.4-0.1-2.1c-0.9,9.5-8,15.1-17,15.1
		s-16.7-5.6-17.6-15.1C32.5,56.8,32.5,57.5,32.5,58.2L32.5,58.2z"/>
	<path class="st4" d="M32.5,97.7c0-10.5,7.8-19,17.4-19c9.6,0,17.4,8.5,17.4,19c0,0.7,0,1.4-0.1,2.1c-0.9-9.5-8-15.1-17-15.1
		s-16.7,5.6-17.6,15.1C32.5,99.1,32.5,98.4,32.5,97.7L32.5,97.7z"/>
</g>
</svg>
