<?xml version="1.0" encoding="utf-8"?>
<!-- Generator: Adobe Illustrator 25.2.0, SVG Export Plug-In . SVG Version: 6.00 Build 0)  -->
<svg version="1.1" id="Calque_1" xmlns="http://www.w3.org/2000/svg" xmlns:xlink="http://www.w3.org/1999/xlink" x="0px" y="0px"
	 viewBox="0 0 99.8 99.8" style="enable-background:new 0 0 99.8 99.8;" xml:space="preserve">
<style type="text/css">
	.st0{fill-rule:evenodd;clip-rule:evenodd;fill:#0054A2;}
	.st1{fill-rule:evenodd;clip-rule:evenodd;fill:#E40F1B;}
	.st2{fill-rule:evenodd;clip-rule:evenodd;fill:#00A039;}
	.st3{fill-rule:evenodd;clip-rule:evenodd;fill:#73A8D7;}
	.st4{fill-rule:evenodd;clip-rule:evenodd;fill:#EF7D14;}
</style>
<g>
	<path class="st0" d="M49.9,44.2c3.2,0,5.7,2.6,5.7,5.7c0,3.2-2.6,5.7-5.7,5.7c-3.2,0-5.7-2.6-5.7-5.7
		C44.2,46.7,46.7,44.2,49.9,44.2L49.9,44.2z"/>
	<path class="st1" d="M49.9,29.8c3.2,0,5.7,2.6,5.7,5.7c0,3.2-2.6,5.8-5.7,5.8c-3.2,0-5.7-2.6-5.7-5.8
		C44.2,32.4,46.7,29.8,49.9,29.8L49.9,29.8z"/>
	<path class="st1" d="M67.3,41.6c0-10.5-7.8-19-17.4-19c-9.6,0-17.4,8.5-17.4,19c0,0.7,0,1.4,0.1,2.1c1-9.5,8-15.1,17-15.1
		c9,0,16.7,5.6,17.6,15.1C67.3,43,67.3,42.3,67.3,41.6L67.3,41.6z"/>
	<path class="st1" d="M67.3,2.1c0,10.5-7.8,19-17.4,19c-9.6,0-17.4-8.5-17.4-19c0-0.7,0-1.4,0.1-2.1c1,9.5,8,15.1,17,15.1
		c9,0,16.7-5.6,17.6-15.1C67.3,0.7,67.3,1.4,67.3,2.1L67.3,2.1z"/>
	<path class="st2" d="M29.8,49.9c0-3.2,2.6-5.7,5.7-5.7c3.2,0,5.7,2.6,5.7,5.7c0,3.2-2.6,5.7-5.7,5.7C32.4,55.6,29.8,53.1,29.8,49.9
		L29.8,49.9z"/>
	<path class="st2" d="M41.6,32.5c-10.5,0-19,7.8-19,17.4c0,9.6,8.5,17.4,19,17.4c0.7,0,1.4,0,2.1-0.1c-9.5-0.9-15.1-8-15.1-17
		c0-8.9,5.6-16.7,15.1-17.6C43,32.5,42.3,32.5,41.6,32.5L41.6,32.5z"/>
	<path class="st2" d="M2.1,32.5c10.5,0,19,7.8,19,17.4c0,9.6-8.6,17.4-19,17.4c-0.7,0-1.4,0-2.1-0.1c9.5-0.9,15.1-8,15.1-17
		c0-8.9-5.6-16.7-15.1-17.6C0.7,32.5,1.4,32.5,2.1,32.5L2.1,32.5z"/>
	<path class="st3" d="M70,49.9c0,3.2-2.6,5.7-5.7,5.7c-3.2,0-5.8-2.6-5.8-5.7c0-3.2,2.6-5.7,5.8-5.7C67.4,44.2,70,46.7,70,49.9
		L70,49.9z"/>
	<path class="st3" d="M58.2,67.3c10.5,0,19-7.8,19-17.4c0-9.6-8.5-17.4-19-17.4c-0.7,0-1.4,0-2.1,0.1c9.5,1,15.1,8.1,15.1,17
		c0,8.9-5.6,16.7-15.1,17.6C56.8,67.3,57.5,67.3,58.2,67.3L58.2,67.3z"/>
	<path class="st3" d="M97.7,67.3c-10.5,0-19-7.8-19-17.4c0-9.6,8.5-17.4,19-17.4c0.7,0,1.4,0,2.1,0.1c-9.5,1-15.1,8.1-15.1,17
		c0,8.9,5.6,16.7,15.1,17.6C99.1,67.3,98.4,67.3,97.7,67.3L97.7,67.3z"/>
	<path class="st4" d="M49.9,70c-3.2,0-5.7-2.6-5.7-5.7c0-3.2,2.6-5.8,5.7-5.8c3.2,0,5.7,2.6,5.7,5.8C55.6,67.4,53.1,70,49.9,70
		L49.9,70z"/>
	<path class="st4" d="M32.5,58.2c0,10.5,7.8,19,17.4,19c9.6,0,17.4-8.5,17.4-19c0-0.7,0-1.4-0.1-2.1c-0.9,9.5-8,15.1-17,15.1
		s-16.7-5.6-17.6-15.1C32.5,56.8,32.5,57.5,32.5,58.2L32.5,58.2z"/>
	<path class="st4" d="M32.5,97.7c0-10.5,7.8-19,17.4-19c9.6,0,17.4,8.5,17.4,19c0,0.7,0,1.4-0.1,2.1c-0.9-9.5-8-15.1-17-15.1
		s-16.7,5.6-17.6,15.1C32.5,99.1,32.5,98.4,32.5,97.7L32.5,97.7z"/>
</g>
</svg>
